<svg width="912" height="250" viewBox="0 0 912 250" fill="none" xmlns="http://www.w3.org/2000/svg">
<g clip-path="url(#clip0_64_2)">
<path d="M68.043 165.953C48.6419 165.953 35.7839 155.927 29.4688 135.875C27.8411 130.732 27.0273 124.807 27.0273 118.102C27.0273 109.898 28.2318 100.621 30.6406 90.2695C35.0677 71.2591 41.7083 56.0573 50.5625 44.6641C66.1875 24.612 83.668 14.5859 103.004 14.5859C122.6 14.5859 135.458 24.612 141.578 44.6641C143.141 49.8073 143.922 55.6992 143.922 62.3398C143.922 70.4128 142.75 79.7227 140.406 90.2695C136.109 109.15 129.469 124.352 120.484 135.875C116.513 140.953 112.509 145.348 108.473 149.059L122.633 179.43L103.492 187.535H102.516L80.9336 140.953L100.074 132.848H101.051L101.246 133.531C102.678 131.904 104.078 130.146 105.445 128.258C111.891 119.599 117.034 106.936 120.875 90.2695C123.219 80.1133 124.391 71.4219 124.391 64.1953C124.391 59.7031 123.935 55.7318 123.023 52.2812C119.312 38.2188 111.37 31.1875 99.1953 31.1875C87.151 31.1875 75.9531 38.2188 65.6016 52.2812C59.1562 61.0703 54.013 73.7331 50.1719 90.2695C47.763 100.686 46.5586 109.475 46.5586 116.637C46.5586 121.129 47.0469 125.003 48.0234 128.258C50.6927 137.112 54.7943 143.167 60.3281 146.422L68.043 165.953Z" fill="#BB6BD9"/>
<path d="M48.0001 99C28.078 99 28.2582 100.5 30.6406 90.2695C35.0677 71.2591 41.7083 56.0573 50.5625 44.6641C66.1875 24.612 83.668 14.5859 103.004 14.5859C122.6 14.5859 135.458 24.612 141.578 44.6641C143.141 49.8073 143.922 55.6992 143.922 62.3398C143.922 70.4128 142.75 79.7227 140.406 90.2695C136.109 109.15 129.469 124.352 120.484 135.875C116.513 140.953 112.509 145.348 108.473 149.059L122.633 179.43L103.492 187.535H102.516L80.9336 140.953L100.074 132.848H101.051L101.246 133.531C102.678 131.904 104.078 130.146 105.445 128.258C111.891 119.599 117.034 106.936 120.875 90.2695C123.219 80.1133 124.391 71.4219 124.391 64.1953C124.391 59.7031 123.935 55.7318 123.023 52.2812C119.313 38.2188 111.37 31.1875 99.1953 31.1875C87.1511 31.1875 75.9532 38.2188 65.6016 52.2812C64.7045 53.5 59 58 48.0001 99Z" fill="#7D37C3"/>
<path d="M242.76 149.78C246.6 149.78 248.52 151.4 248.52 154.64V159.14C248.52 162.38 246.6 164 242.76 164H228.54C226.62 164 225 163.4 223.68 162.2C222.48 160.88 221.88 159.26 221.88 157.34V143.84C219.24 150.2 215.16 155.48 209.64 159.68C204.24 163.76 198.48 165.8 192.36 165.8C182.52 165.8 175.2 162.5 170.4 155.9C165.72 149.3 163.38 139.16 163.38 125.48V88.22H158.7C154.86 88.22 152.94 86.6 152.94 83.36V78.86C152.94 75.62 154.86 74 158.7 74H173.28C174.96 74 176.4 74.66 177.6 75.98C178.92 77.18 179.58 78.74 179.58 80.66V122.96C179.58 130.28 180.06 135.98 181.02 140.06C182.1 144.14 183.84 147.14 186.24 149.06C188.76 150.86 192.12 151.76 196.32 151.76C200.64 151.76 204.78 150.32 208.74 147.44C212.7 144.56 215.88 140.78 218.28 136.1C220.68 131.3 221.88 126.32 221.88 121.16V88.22H217.2C213.24 88.22 211.26 86.6 211.26 83.36V78.86C211.26 75.62 213.24 74 217.2 74H231.6C233.52 74 235.08 74.66 236.28 75.98C237.48 77.18 238.08 78.74 238.08 80.66V149.78H242.76ZM284.63 56.54C281.27 56.54 278.45 55.4 276.17 53.12C273.89 50.84 272.75 48.02 272.75 44.66C272.75 41.3 273.89 38.54 276.17 36.38C278.45 34.1 281.27 32.96 284.63 32.96C287.99 32.96 290.75 34.1 292.91 36.38C295.19 38.54 296.33 41.3 296.33 44.66C296.33 48.02 295.19 50.84 292.91 53.12C290.75 55.4 287.99 56.54 284.63 56.54ZM274.73 164C270.89 164 268.97 162.38 268.97 159.14V154.64C268.97 151.4 270.89 149.78 274.73 149.78H279.41V88.22H274.73C270.89 88.22 268.97 86.6 268.97 83.36V78.86C268.97 75.62 270.89 74 274.73 74H288.95C290.87 74 292.43 74.66 293.63 75.98C294.95 77.18 295.61 78.74 295.61 80.66V149.78H300.29C304.25 149.78 306.23 151.4 306.23 154.64V159.14C306.23 162.38 304.25 164 300.29 164H274.73ZM398.213 132.5C401.453 132.5 403.073 134.48 403.073 138.44V157.34C403.073 159.26 402.413 160.88 401.093 162.2C399.893 163.4 398.333 164 396.413 164H332.873C330.953 164 329.513 163.58 328.553 162.74C327.593 161.78 327.113 160.46 327.113 158.78V157.16C327.113 155 328.133 152.66 330.173 150.14L378.953 87.5H342.053V97.22C342.053 101.18 340.433 103.16 337.193 103.16H332.693C331.133 103.16 329.933 102.68 329.093 101.72C328.253 100.64 327.833 99.14 327.833 97.22V80.66C327.833 78.74 328.493 77.18 329.813 75.98C331.133 74.66 332.693 74 334.493 74H395.513C397.313 74 398.693 74.48 399.653 75.44C400.613 76.28 401.093 77.54 401.093 79.22V80.84C401.093 83 400.073 85.34 398.033 87.86L349.253 150.5H388.853V138.44C388.853 134.48 390.473 132.5 393.713 132.5H398.213ZM497.831 132.5C501.071 132.5 502.691 134.48 502.691 138.44V157.34C502.691 159.26 502.031 160.88 500.711 162.2C499.511 163.4 497.951 164 496.031 164H432.491C430.571 164 429.131 163.58 428.171 162.74C427.211 161.78 426.731 160.46 426.731 158.78V157.16C426.731 155 427.751 152.66 429.791 150.14L478.571 87.5H441.671V97.22C441.671 101.18 440.051 103.16 436.811 103.16H432.311C430.751 103.16 429.551 102.68 428.711 101.72C427.871 100.64 427.451 99.14 427.451 97.22V80.66C427.451 78.74 428.111 77.18 429.431 75.98C430.751 74.66 432.311 74 434.111 74H495.131C496.931 74 498.311 74.48 499.271 75.44C500.231 76.28 500.711 77.54 500.711 79.22V80.84C500.711 83 499.691 85.34 497.651 87.86L448.871 150.5H488.471V138.44C488.471 134.48 490.091 132.5 493.331 132.5H497.831ZM611.67 74C615.63 74 617.61 75.62 617.61 78.86V83.36C617.61 86.6 615.63 88.22 611.67 88.22H606.99L570.09 178.94C565.65 189.5 561.27 196.82 556.95 200.9C552.75 205.1 547.35 207.2 540.75 207.2C535.59 207.2 531.33 205.76 527.97 202.88C524.73 200.12 523.11 196.58 523.11 192.26C523.11 189.14 524.07 186.62 525.99 184.7C528.03 182.78 530.61 181.82 533.73 181.82C536.49 181.82 538.83 182.78 540.75 184.7C542.67 186.62 543.63 188.96 543.63 191.72C543.63 192.32 543.51 193.1 543.27 194.06C545.55 193.58 547.59 192.08 549.39 189.56C551.19 187.16 553.17 183.26 555.33 177.86L561.99 161.12L532.11 88.22H527.43C523.47 88.22 521.49 86.6 521.49 83.36V78.86C521.49 75.62 523.47 74 527.43 74H552.09C555.93 74 557.85 75.62 557.85 78.86V83.36C557.85 86.6 555.93 88.22 552.09 88.22H549.03L570.45 141.68L591.51 88.22H587.91C583.95 88.22 581.97 86.6 581.97 83.36V78.86C581.97 75.62 583.95 74 587.91 74H611.67Z" fill="#BB6BD9"/>
<path d="M634.781 165.83C635.479 170.625 633.496 173.371 628.834 174.068C626.436 174.35 624.432 173.696 622.821 172.106C621.345 170.516 620.399 168.589 619.984 166.325C619.569 163.927 619.687 161.593 620.339 159.322C621.125 157.05 622.583 155.774 624.715 155.494C627.379 155.077 629.652 156.062 631.534 158.45C633.415 160.705 634.498 163.165 634.781 165.83ZM667.811 132.417C665.946 132.695 663.745 132.51 661.208 131.859C658.803 131.208 657.126 129.552 656.176 126.891C655.767 125.561 655.692 124.294 655.951 123.093C656.209 121.758 657.603 120.815 660.133 120.266C662.53 119.717 665.06 119.234 667.724 118.817C670.52 118.266 673.317 117.781 676.115 117.363L668.571 95.0111C666.25 86.4925 665.936 79.161 667.63 73.0167C669.324 66.8723 674.229 62.4408 682.345 59.7219C685.671 58.6339 688.935 58.2129 692.137 58.459C695.472 58.7043 698.611 59.5508 701.553 60.9986C704.496 62.4464 707.175 64.3626 709.59 66.7471C712.006 69.1317 713.957 71.9192 715.444 75.1097C715.987 76.5729 716.262 77.9045 716.27 79.1045C716.41 80.1703 716.017 81.1728 715.089 82.1121C713.765 83.454 712.302 84.0634 710.701 83.9404C709.099 83.684 708.03 83.2242 707.492 82.5609C706.283 81.102 704.94 79.6439 703.464 78.1867C702.12 76.5953 700.645 75.2714 699.038 74.215C697.564 73.0245 695.958 72.1681 694.222 71.6459C692.484 70.9904 690.616 70.8024 688.618 71.0819C687.685 71.2212 686.555 71.6951 685.227 72.5037C684.032 73.3114 682.974 74.5849 682.051 76.3242C681.128 77.9301 680.542 80.0673 680.293 82.7356C680.176 85.403 680.664 88.7333 681.757 92.7264C682.711 96.0537 683.801 99.6467 685.026 103.506C686.251 107.364 687.61 111.423 689.104 115.68C695.5 114.972 701.365 114.734 706.7 114.967C709.635 115.215 712.372 115.73 714.91 116.514C717.449 117.298 719.523 118.484 721.133 120.074C721.542 121.405 721.482 122.539 720.955 123.475C720.427 124.279 719.631 125.017 718.569 125.691C717.639 126.23 716.509 126.637 715.177 126.913C713.979 127.187 712.78 127.395 711.581 127.536C708.916 127.819 706.118 128.171 703.187 128.59C700.256 128.875 697.191 129.161 693.993 129.449C696.165 135.435 698.135 141.156 699.903 146.611C701.804 151.932 703.299 156.389 704.389 159.982C704.935 161.979 705.016 164.112 704.63 166.381C704.245 168.65 703.725 170.854 703.073 172.991C702.026 176.065 700.708 178.54 699.12 180.417C697.532 182.294 695.803 182.905 693.932 182.25C692.461 181.593 691.522 180.732 691.115 179.668C690.708 178.604 690.632 177.138 690.887 175.269C691.14 173.134 691.259 171 691.246 168.867C691.232 166.734 691.086 164.801 690.809 163.07C690.663 161.204 690.386 159.606 689.978 158.275C689.702 156.81 689.495 155.811 689.359 155.279L680.802 130.933C678.67 131.214 676.539 131.494 674.407 131.774C672.275 131.921 670.076 132.136 667.811 132.417ZM754.082 109.062C753.305 112.667 752.531 116.672 751.759 121.078C750.986 125.349 750.413 129.486 750.039 133.489C749.798 137.49 749.821 141.09 750.108 144.289C750.528 147.486 751.41 149.747 752.752 151.072C755.021 151.457 757.615 150.507 760.533 148.222C763.451 145.803 766.299 142.785 769.075 139.167C771.852 135.549 774.361 131.666 776.601 127.518C778.84 123.237 780.416 119.493 781.329 116.288C781.852 114.684 782.308 113.015 782.697 111.279C783.086 109.543 783.274 107.742 783.262 105.875C783.255 104.808 783.915 103.804 785.243 102.862C786.702 101.786 787.899 101.178 788.831 101.039C789.497 100.901 790.231 101.03 791.034 101.425C791.969 101.819 792.773 102.414 793.445 103.209C794.249 103.871 794.922 104.733 795.462 105.797C796.134 106.726 796.474 107.723 796.481 108.79C796.773 112.788 797.202 117.186 797.766 121.982C798.33 126.779 798.961 131.575 799.658 136.37C800.489 141.165 801.319 145.826 802.148 150.355C802.977 154.883 803.803 158.944 804.626 162.539C805.036 164.003 804.646 165.672 803.458 167.547C802.27 169.421 800.944 170.563 799.48 170.972C798.282 171.247 797.015 171.121 795.678 170.597C794.474 170.071 793.534 169.01 792.857 167.415C792.179 165.552 791.497 163.29 790.814 160.628C790.262 157.831 789.711 154.968 789.159 152.038C788.739 148.974 788.32 146.11 787.903 143.446C787.485 140.649 787.204 138.317 787.058 136.451C785.082 140.064 782.705 143.746 779.929 147.497C777.286 151.114 774.374 154.466 771.194 157.553C768.146 160.506 764.894 162.861 761.439 164.616C758.116 166.238 754.653 166.86 751.05 166.483C745.713 165.851 741.614 160.877 738.754 151.562C737.664 147.835 737.104 143.705 737.075 139.172C737.179 134.638 737.484 130.169 737.989 125.766C738.626 121.229 739.332 116.957 740.107 112.952C741.014 108.946 741.793 105.675 742.444 103.137C742.703 102.069 743.231 101.132 744.026 100.327C744.82 99.3883 745.751 99.049 746.819 99.3088C748.822 99.6959 750.629 100.884 752.242 102.874C753.988 104.863 754.601 106.926 754.082 109.062ZM833.668 101.751C834.081 103.749 834.495 106.013 834.911 108.543C835.46 110.94 836.01 113.47 836.56 116.133C837.11 118.663 837.593 121.26 838.01 123.924C838.427 126.588 838.777 129.119 839.059 131.517C840.637 128.04 842.346 124.363 844.188 120.484C846.03 116.605 848.007 113.059 850.12 109.846C852.365 106.498 854.681 103.75 857.067 101.601C859.587 99.4514 862.313 98.3672 865.247 98.3484C869.647 98.3201 873.323 99.8966 876.277 103.078C879.364 106.258 881.923 110.242 883.954 115.029C886.117 119.681 887.816 124.604 889.049 129.796C890.282 134.988 891.312 139.582 892.138 143.577C892.961 147.171 891.378 149.848 887.389 151.607C885.528 152.553 884.129 152.695 883.192 152.034C882.254 151.374 881.716 150.71 881.579 150.045C880.902 148.449 880.017 145.655 878.925 141.661C877.966 137.668 876.807 133.608 875.447 129.484C874.22 125.358 872.797 121.767 871.177 118.711C869.558 115.654 867.749 114.266 865.751 114.545C863.352 114.694 861.23 116.508 859.385 119.986C857.803 122.797 856.157 125.941 854.446 129.418C852.867 132.762 851.29 136.239 849.713 139.849C848.135 143.326 846.558 146.869 844.981 150.48C843.537 153.956 842.157 157.165 840.843 160.106C839.915 161.046 838.72 161.72 837.256 162.129C835.924 162.405 834.523 162.28 833.053 161.756C831.717 161.365 830.646 160.705 829.84 159.777C829.034 158.849 828.628 157.918 828.622 156.985C827.356 146.593 826.028 137.134 824.64 128.61C823.385 120.084 821.729 111.361 819.672 102.441C818.719 99.3805 818.504 96.9818 819.026 95.2451C819.68 93.3742 821.676 92.628 825.011 93.0066C829.683 93.7766 832.569 96.6915 833.668 101.751Z" fill="#56CCF2"/>
<circle cx="130.5" cy="218.5" r="16.5" fill="#7D37C3"/>
</g>
<defs>
<clipPath id="clip0_64_2">
<rect width="912" height="250" fill="white"/>
</clipPath>
</defs>
</svg>
